<svg version="1.2" xmlns="http://www.w3.org/2000/svg" viewBox="0 0 162 32" width="162" height="32">
	<title>redirectDoc-svg</title>
	<style>
		.s0 { fill: #00dc82 } 
		.s1 { fill: #f7f7f7 } 
	</style>
	<path id="Layer" class="s0" d="m0 4c0-2.2 1.8-4 4-4h154c2.2 0 4 1.8 4 4v24c0 2.2-1.8 4-4 4h-154c-2.2 0-4-1.8-4-4z"/>
	<path id="Go to documentation" class="s1" aria-label="Go to documentation"  d="m21.1 18.7q0.7 0 1.4-0.2 0.7-0.3 1.1-0.6v-1.2h-2.2v-1.4h3.9v3.3q-0.7 0.7-1.8 1.1-1.2 0.4-2.4 0.4-2.2 0-3.4-1.2-1.2-1.2-1.2-3.4 0-2.2 1.2-3.4 1.2-1.2 3.4-1.2 3.2 0 4 2.4l-1.7 0.5q-0.3-0.7-0.9-1.1-0.6-0.3-1.4-0.3-1.3 0-2 0.8-0.7 0.8-0.7 2.3 0 1.5 0.7 2.3 0.7 0.9 2 0.9zm12.4-2.1q0 1.6-0.9 2.6-0.9 0.9-2.5 0.9-1.7 0-2.6-0.9-0.9-1-0.9-2.6 0-1.7 0.9-2.6 0.9-1 2.6-1 1.7 0 2.6 0.9 0.8 0.9 0.8 2.7zm-1.8 0q0-1.3-0.4-1.8-0.4-0.6-1.2-0.6-1.6 0-1.6 2.4 0 1.1 0.4 1.7 0.4 0.6 1.1 0.6 1.7 0 1.7-2.3zm8.6 3.5q-0.8 0-1.2-0.4-0.4-0.4-0.4-1.3v-4.1h-0.9v-1.2h1l0.5-1.6h1.2v1.6h1.3v1.2h-1.3v3.6q0 0.5 0.1 0.7 0.2 0.3 0.6 0.3 0.2 0 0.6-0.1v1.1q-0.6 0.2-1.5 0.2zm9.1-3.5q0 1.6-0.9 2.6-0.9 0.9-2.6 0.9-1.6 0-2.5-0.9-0.9-1-0.9-2.6 0-1.7 0.9-2.6 0.9-1 2.6-1 1.7 0 2.5 0.9 0.9 0.9 0.9 2.7zm-1.8 0q0-1.3-0.4-1.8-0.4-0.6-1.2-0.6-1.6 0-1.6 2.4 0 1.1 0.4 1.7 0.4 0.6 1.1 0.6 1.7 0 1.7-2.3zm13 3.4h-1.7q0-0.1-0.1-0.5 0-0.4 0-0.6-0.6 1.2-2.2 1.2-1.2 0-1.9-0.9-0.6-0.9-0.6-2.6 0-1.7 0.7-2.7 0.7-0.9 1.9-0.9 0.8 0 1.3 0.3 0.5 0.3 0.8 0.9v-1.1-2.5h1.8v7.9q0 0.6 0 1.5zm-1.8-3.5q0-1.1-0.4-1.7-0.3-0.6-1-0.6-0.8 0-1.1 0.6-0.4 0.6-0.4 1.8 0 2.3 1.4 2.3 0.7 0 1.1-0.6 0.4-0.6 0.4-1.8zm10.1 0.1q0 1.6-0.9 2.6-0.9 0.9-2.6 0.9-1.6 0-2.5-0.9-0.9-1-0.9-2.6 0-1.7 0.9-2.6 0.9-1 2.6-1 1.6 0 2.5 0.9 0.9 0.9 0.9 2.7zm-1.8 0q0-1.3-0.4-1.8-0.4-0.6-1.2-0.6-1.6 0-1.6 2.4 0 1.1 0.4 1.7 0.4 0.6 1.1 0.6 1.7 0 1.7-2.3zm6.1 3.5q-1.6 0-2.4-0.9-0.9-0.9-0.9-2.6 0-1.7 0.9-2.6 0.8-1 2.4-1 1.2 0 2 0.6 0.8 0.6 1 1.7l-1.8 0.1q0-0.5-0.4-0.9-0.3-0.3-0.8-0.3-1.4 0-1.4 2.3 0 2.4 1.4 2.4 0.5 0 0.9-0.3 0.3-0.3 0.4-1l1.8 0.1q-0.1 0.7-0.5 1.3-0.4 0.5-1.1 0.8-0.7 0.3-1.5 0.3zm4.3-7h1.7v3.9q0 1.8 1.3 1.8 0.6 0 1-0.6 0.4-0.5 0.4-1.4v-3.7h1.8v5.4q0 0.8 0 1.5h-1.7q0-0.9 0-1.4h-0.1q-0.3 0.8-0.9 1.2-0.5 0.3-1.3 0.3-1.1 0-1.7-0.6-0.5-0.7-0.5-2zm13.8 6.9h-1.7v-3.9q0-1.8-1.1-1.8-0.5 0-0.9 0.6-0.3 0.5-0.3 1.4v3.7h-1.8v-5.4q0-0.5 0-0.9 0-0.3 0-0.6h1.7q0 0.1 0 0.6 0 0.6 0 0.8h0.1q0.3-0.8 0.8-1.2 0.5-0.3 1.2-0.3 1.5 0 1.9 1.5 0.4-0.8 0.9-1.2 0.4-0.3 1.2-0.3 1 0 1.5 0.6 0.6 0.7 0.6 2v4.4h-1.8v-3.9q0-1.8-1.1-1.8-0.5 0-0.8 0.5-0.3 0.5-0.4 1.4zm8.6 0.1q-1.6 0-2.4-0.9-0.8-0.9-0.8-2.7 0-1.7 0.8-2.6 0.9-0.9 2.4-0.9 1.5 0 2.3 1 0.7 1 0.7 2.9h-4.4q0 1 0.4 1.5 0.4 0.5 1.1 0.5 0.9 0 1.2-0.8l1.6 0.2q-0.7 1.8-2.9 1.8zm0-6q-0.7 0-1 0.5-0.3 0.4-0.3 1.2h2.6q0-0.8-0.4-1.3-0.3-0.4-0.9-0.4zm10.6 5.9h-1.8v-3.9q0-1.8-1.2-1.8-0.6 0-1 0.6-0.4 0.5-0.4 1.4v3.7h-1.8v-5.3q0-0.6 0-0.9 0-0.4-0.1-0.7h1.7q0.1 0.1 0.1 0.7 0 0.5 0 0.7h0.1q0.3-0.8 0.9-1.1 0.5-0.4 1.3-0.4 1.1 0 1.6 0.7 0.6 0.6 0.6 1.9zm3.5 0.2q-0.8 0-1.2-0.5-0.4-0.4-0.4-1.3v-4h-0.9v-1.2h0.9l0.6-1.6h1.1v1.6h1.3v1.2h-1.3v3.5q0 0.5 0.2 0.8 0.2 0.2 0.6 0.2 0.2 0 0.6-0.1v1.1q-0.7 0.3-1.5 0.3zm4.2 0q-1 0-1.6-0.6-0.6-0.5-0.6-1.5 0-1.1 0.7-1.6 0.7-0.6 2-0.6h1.5v-0.4q0-0.7-0.2-1-0.2-0.3-0.8-0.3-0.5 0-0.7 0.2-0.2 0.2-0.3 0.8l-1.8-0.1q0.1-1 0.9-1.5 0.7-0.6 2-0.6 1.3 0 2 0.7 0.7 0.6 0.7 1.8v2.5q0 0.6 0.1 0.8 0.2 0.2 0.5 0.2 0.2 0 0.4 0v0.9q-0.2 0.1-0.3 0.1-0.1 0-0.3 0.1-0.1 0-0.2 0-0.2 0-0.4 0-0.6 0-1-0.3-0.3-0.3-0.3-1h-0.1q-0.7 1.4-2.2 1.4zm2-3v-0.3h-0.9q-0.6 0-0.9 0.1-0.2 0.1-0.4 0.3-0.1 0.3-0.1 0.7 0 0.4 0.2 0.7 0.2 0.2 0.6 0.2 0.4 0 0.8-0.2 0.3-0.2 0.5-0.6 0.2-0.4 0.2-0.9zm5.4 3q-0.8 0-1.3-0.5-0.4-0.4-0.4-1.3v-4h-0.9v-1.2h1l0.6-1.6h1.1v1.6h1.3v1.2h-1.3v3.5q0 0.5 0.2 0.8 0.2 0.2 0.6 0.2 0.2 0 0.6-0.1v1.1q-0.7 0.3-1.5 0.3zm4.3-8.3h-1.8v-1.3h1.8zm0 8.1h-1.8v-6.8h1.8zm8.4-3.5q0 1.7-1 2.6-0.9 1-2.5 1-1.6 0-2.5-1-1-0.9-1-2.6 0-1.6 1-2.6 0.9-0.9 2.5-0.9 1.7 0 2.6 0.9 0.9 0.9 0.9 2.6zm-1.9 0q0-1.2-0.4-1.8-0.4-0.5-1.2-0.5-1.6 0-1.6 2.3 0 1.2 0.4 1.8 0.4 0.6 1.2 0.6 1.6 0 1.6-2.4zm9.5 3.5h-1.8v-3.9q0-1.8-1.2-1.8-0.6 0-1 0.6-0.4 0.5-0.4 1.4v3.7h-1.8v-5.4q0-0.5 0-0.9-0.1-0.3-0.1-0.6h1.7q0 0.1 0.1 0.6 0 0.6 0 0.8 0.4-0.8 0.9-1.2 0.6-0.3 1.3-0.3 1.1 0 1.7 0.6 0.6 0.7 0.6 2z"/>
</svg>